<svg width="700" height="786" viewBox="0 0 700 786" fill="none" xmlns="http://www.w3.org/2000/svg">
<mask id="mask0_32145_31" style="mask-type:alpha" maskUnits="userSpaceOnUse" x="0" y="0" width="700" height="786">
<rect width="700" height="786" fill="#D9D9D9"/>
</mask>
<g mask="url(#mask0_32145_31)">
<rect opacity="0.5" x="0.5" y="-0.5" width="665" height="667" rx="332.5" transform="matrix(1 0 0 -1 -220 726)" stroke="#2D2E40"/>
<rect opacity="0.25" x="0.5" y="-0.5" width="783" height="785" rx="391.5" transform="matrix(1 0 0 -1 -279 785)" stroke="#2D2E40"/>
<rect opacity="0.08" width="550" height="552" rx="275" transform="matrix(1 0 0 -1 -162 669)" fill="#2D2E40"/>
</g>
<mask id="mask1_32145_31" style="mask-type:alpha" maskUnits="userSpaceOnUse" x="0" y="0" width="700" height="786">
<rect width="700" height="786" fill="#D9D9D9"/>
</mask>
<g mask="url(#mask1_32145_31)">
<g filter="url(#filter0_d_32145_31)">
<rect x="-7" y="200" width="538" height="368" rx="12" fill="#4C5862"/>
<rect x="-4" y="203" width="532" height="362" rx="10" fill="#24242C"/>
<rect x="10" y="216" width="506" height="335.872" rx="3" fill="url(#paint0_linear_32145_31)"/>
<mask id="mask2_32145_31" style="mask-type:luminance" maskUnits="userSpaceOnUse" x="10" y="216" width="506" height="336">
<rect x="10" y="216" width="506" height="335.872" rx="3" fill="white"/>
</mask>
<g mask="url(#mask2_32145_31)">
<rect x="9.67529" y="276.293" width="506" height="275.838" rx="3" fill="#F9F6F6"/>
<rect x="81.4753" y="253.459" width="106.646" height="256.541" rx="3" fill="white"/>
<rect x="206.274" y="253.459" width="238.251" height="256.541" rx="3" fill="white"/>
<rect x="216.484" y="267.081" width="217.83" height="60.1622" rx="3" fill="#E7E7E7"/>
<rect x="216.484" y="339.73" width="64.6682" height="60.1622" rx="3" fill="#E7E7E7"/>
<rect x="297.036" y="339.73" width="137.278" height="60.1622" rx="3" fill="#E7E7E7"/>
</g>
<rect x="260" y="208" width="13.6" height="3" rx="1.5" fill="#52526F"/>
<rect x="276.8" y="208" width="3.2" height="3" rx="1.5" fill="#52526F"/>
<path d="M-89 567C-89 565.343 -87.6569 564 -86 564H606.899C608.556 564 609.899 565.343 609.899 567V581.105H-89V567Z" fill="#52526F"/>
<mask id="mask3_32145_31" style="mask-type:luminance" maskUnits="userSpaceOnUse" x="-89" y="564" width="699" height="18">
<path d="M-89 567C-89 565.343 -87.6569 564 -86 564H606.899C608.556 564 609.899 565.343 609.899 567V581.105H-89V567Z" fill="white"/>
</mask>
<g mask="url(#mask3_32145_31)">
<rect x="203.371" y="522.092" width="114.156" height="52.1711" rx="10" fill="#2D2E40"/>
</g>
<path d="M-89 581H610C610 584.314 607.314 587 604 587H-83C-86.3137 587 -89 584.314 -89 581Z" fill="#3E4062"/>
</g>
</g>
<defs>
<filter id="filter0_d_32145_31" x="-129" y="180" width="779" height="467" filterUnits="userSpaceOnUse" color-interpolation-filters="sRGB">
<feFlood flood-opacity="0" result="BackgroundImageFix"/>
<feColorMatrix in="SourceAlpha" type="matrix" values="0 0 0 0 0 0 0 0 0 0 0 0 0 0 0 0 0 0 127 0" result="hardAlpha"/>
<feOffset dy="20"/>
<feGaussianBlur stdDeviation="20"/>
<feColorMatrix type="matrix" values="0 0 0 0 0.421822 0 0 0 0 0.554338 0 0 0 0 0.89371 0 0 0 0.243444 0"/>
<feBlend mode="normal" in2="BackgroundImageFix" result="effect1_dropShadow_32145_31"/>
<feBlend mode="normal" in="SourceGraphic" in2="effect1_dropShadow_32145_31" result="shape"/>
</filter>
<linearGradient id="paint0_linear_32145_31" x1="-243" y1="383.936" x2="66.5165" y2="850.23" gradientUnits="userSpaceOnUse">
<stop stop-color="#FF8F71"/>
<stop offset="1" stop-color="#FF3E55"/>
</linearGradient>
</defs>
</svg>
